<svg width="131" height="151" viewBox="0 0 131 151" fill="none" xmlns="http://www.w3.org/2000/svg">
<path d="M48.1248 130.73C53.5448 125.31 57.7148 119.53 59.2348 112.04C51.5548 121.98 38.1148 129.67 31.3848 123.1C27.9548 119.75 27.9748 114.73 29.7548 110.65C31.3648 106.96 35.1148 103.48 39.9148 103.76L40.3048 112.36C40.3848 114.09 44.4748 115.42 46.1148 114.6C50.9848 112.16 53.8348 109.13 56.2748 104.08L46.9548 103.71L46.9948 90.93L53.6948 90.54C49.2948 81.23 41.5548 75.17 32.0048 73.44C27.7848 72.68 23.8948 74.3 22.1248 77.83C20.7348 80.6 20.8848 87.05 25.2148 88.05C28.0948 88.71 31.4248 88.69 34.7448 88.9C33.9348 92.78 31.8148 96.15 28.4648 97.7C22.0248 100.68 13.8648 100.81 8.00477 96.21C-2.24523 88.15 -2.85523 71.98 7.35477 63.54C20.6148 52.58 40.6848 56.02 49.9248 70.22C52.4048 74.04 54.3048 76.96 57.0948 80.62C54.9948 71.42 51.6548 64.11 48.3848 55.93C38.9648 32.41 50.6048 18.43 64.6648 0C80.0048 18.18 90.5648 33.33 81.0848 56.15C77.6148 64.5 74.6148 72.44 72.0748 81.38L83.6348 65.74C93.3848 55.19 110.185 54.35 121.245 62.81C128.275 68.18 131.355 75.74 129.525 83.97C127.785 91.78 121.905 98.41 113.215 99.55C104.685 100.67 96.6048 96.8 94.8248 88.15C98.3548 88.51 101.865 89.04 105.045 88.19C108.225 87.34 108.995 82.07 108.425 79.43C107.795 76.51 104.595 73.27 100.995 73.33C89.8648 73.5 80.4448 80.51 76.1248 90.53L82.3248 90.71L82.3048 103.59L73.1448 103.66C75.3148 108.59 79.6448 113.57 85.1248 114.72C86.7348 115.06 90.2648 112.83 90.0448 111.24L89.0448 104.01C93.5248 103.66 97.5748 106.12 99.4648 109.54C101.535 113.3 102.625 118.14 99.4748 121.76C94.9848 126.92 86.4248 126.45 81.1748 122.15C77.1648 118.88 73.9948 115.61 70.1348 111.92C71.5748 119.77 76.3948 124.84 81.2248 130.53C72.9748 134.96 68.7548 141.74 65.1348 150.18C60.8948 141.49 55.8348 134.73 48.1448 130.74L48.1248 130.73Z" fill="black"/>
</svg>
